<svg width="32" height="32" viewBox="0 0 32 32" xmlns="http://www.w3.org/2000/svg">
  <rect width="32" height="32" fill="#1e293b"/>
  <g transform="translate(10,26) scale(0.25)">
    <path d="M-25,-15 L25,-40 L75,-15 L25,10 Z" fill="#3498db" opacity="0.9" />
    <path d="M-25,-33.75 L25,-58.75 L75,-33.75 L25,-8.75 Z" fill="#e74c3c" opacity="0.9" />
    <path d="M-25,-52.5 L25,-77.5 L75,-52.5 L25,-27.5 Z" fill="#2ecc71" opacity="0.9" />
    <path d="M-25,-71.25 L25,-96.25 L75,-71.25 L25,-46.25 Z" fill="#f39c12" opacity="0.9" />
    <path d="M25,-40 L75,-15 L75,-33.75 L25,-58.75 Z" fill="#2980b9" opacity="0.7" />
    <path d="M25,-58.75 L75,-33.75 L75,-52.5 L25,-77.5 Z" fill="#c0392b" opacity="0.7" />
    <path d="M25,-77.5 L75,-52.5 L75,-71.25 L25,-96.25 Z" fill="#27ae60" opacity="0.7" />
  </g>
</svg>